<?xml version="1.0" encoding="utf-8"?>
<!-- Generator: Adobe Illustrator 27.9.0, SVG Export Plug-In . SVG Version: 6.00 Build 0)  -->
<svg version="1.1" id="Layer_1" xmlns="http://www.w3.org/2000/svg" xmlns:xlink="http://www.w3.org/1999/xlink" x="0px" y="0px"
	 viewBox="0 0 500 500" style="enable-background:new 0 0 500 500;" xml:space="preserve">
<style type="text/css">
	.st0{fill:#FFFFFF;}
	.st1{fill:#FFFFFF;stroke:#333333;stroke-width:5;stroke-miterlimit:10;}
	.st2{fill:#FFFFFF;stroke:#333333;stroke-width:4;stroke-miterlimit:10;}
	.st3{fill:#172952;}
	.st4{fill:#CE2029;}
	.st5{display:none;}
	.st6{display:inline;fill:#FFFFFF;stroke:#333333;stroke-width:4;stroke-miterlimit:10;}
	.st7{display:inline;fill:#22205F;}
	.st8{display:inline;fill:#FFFFFF;}
	.st9{display:inline;fill:#CB2026;}
	.st10{display:inline;fill:#CD2027;}
</style>
<circle class="st0" cx="250" cy="250" r="250"/>
<path class="st1" d="M250,124.3v192.53c0,4.03,3.64,7.3,8.12,7.3H415.4c4.49,0,8.12-3.27,8.12-7.3V152.58
	c0-11.02-13.86-24.49-15.63-26.16c-0.13-0.12-0.24-0.24-0.37-0.37c-1.71-1.87-15.26-16.35-24.79-16.35H266.25
	C257.27,109.7,250,116.24,250,124.3z"/>
<g>
	<path class="st2" d="M272.75,395.35H90.57c-7.85,0-14.22-6.37-14.22-14.22V264.22c0-7.85,6.37-14.22,14.22-14.22h182.18
		c7.85,0,14.22,6.37,14.22,14.22v116.91C286.97,388.98,280.61,395.35,272.75,395.35z"/>
	<rect x="84.49" y="258.2" class="st3" width="63.54" height="126.5"/>
	<rect x="148.03" y="258.26" class="st0" width="62.75" height="126.5"/>
	<rect x="210.79" y="258.26" class="st4" width="63.81" height="126.5"/>
</g>
<g class="st5">
	<path class="st6" d="M331.83,395.35H90.57c-7.85,0-14.22-6.37-14.22-14.22V264.22c0-7.85,6.37-14.22,14.22-14.22h241.25
		c7.85,0,14.22,6.37,14.22,14.22v116.91C346.04,388.98,339.68,395.35,331.83,395.35z"/>
	<rect x="84.49" y="258.2" class="st7" width="252.27" height="126.56"/>
	<polygon class="st8" points="138.65,370.43 139.83,358.57 127.83,357.13 137.87,350.35 131.61,339.65 142.83,343.43 147.39,332.22 
		151.57,343.7 163.57,339.91 156.91,350.48 166.83,357 155.35,358.3 156.52,370.43 147.33,362.35 	"/>
	<polygon class="st8" points="253.04,314.74 248.15,311.41 251.48,306.46 245.67,308.54 243.52,302.67 241.5,308.15 235.83,306.33 
		238.7,311.48 233.93,314.74 239.67,315.65 239.22,321.48 243.49,317.48 247.76,321.48 247.3,315.59 	"/>
	<polygon class="st8" points="266.95,280.16 271.94,276.88 268.76,271.74 274.43,273.6 276.54,268.03 278.69,273.85 284.32,271.94 
		281.28,276.78 286.27,280.16 280.35,280.74 280.89,286.76 276.61,282.65 272.48,286.76 272.87,280.79 	"/>
	<polygon class="st8" points="297.52,297.52 303.2,299.43 305.4,293.8 307.4,299.43 313.27,297.62 310.14,302.67 314.89,305.98 
		309.07,306.77 309.65,312.88 305.45,308.58 300.95,312.88 301.53,306.77 295.61,306.18 300.65,302.67 	"/>
	<polygon class="st8" points="290.28,321.18 291.41,324.77 295.27,324.77 292.09,327.31 293.22,330.68 290.28,328.29 287.05,330.93 
		288.13,327.07 285.24,324.72 288.82,324.82 	"/>
	<polygon class="st9" points="86.02,258.15 128.18,279.03 124.76,280.94 113.36,278.89 84.49,264.21 84.49,258.11 	"/>
	<polygon class="st9" points="210.63,282.78 155.38,282.78 155.38,258.2 140.02,258.2 140.02,280.94 84.49,280.94 84.49,297.42 
		138.95,297.42 138.95,321.18 155.28,321.18 155.28,298.35 210.52,298.35 	"/>
	<polygon class="st10" points="137.54,300.33 96.65,321.18 84.49,321.18 84.49,319.3 125.15,299.41 138.13,299.41 	"/>
	<polygon class="st10" points="209.93,259.03 169.04,279.88 156.88,279.88 156.88,278 197.54,258.11 210.52,258.11 	"/>
	<polygon class="st9" points="208.99,321.15 166.83,300.26 170.25,298.35 181.65,300.41 210.52,315.08 210.52,321.18 	"/>
	<polygon class="st8" points="272.14,372.65 272.72,366.83 266.76,366.24 271.79,362.72 268.71,357.49 274.34,359.59 276.44,354.07 
		278.3,359.4 284.27,357.73 280.99,362.72 285.98,366.05 280.35,366.73 280.6,372.65 276.37,368.6 	"/>
	<polygon class="st8" points="84.49,295.86 141.2,295.86 141.2,321.18 136.84,321.18 136.84,302.46 99.91,321.18 94.68,321.18 
		136.6,300.11 126.33,300.11 84.49,321.18 84.49,313.42 111.16,300.11 84.49,300.11 	"/>
	<polygon class="st8" points="210.63,295.91 153.91,295.91 153.91,321.18 158.02,321.18 158.02,302.51 195.2,321.18 210.41,321.18 
		168.49,300.07 179.05,300.07 210.63,316.06 210.63,313.57 183.9,300.16 210.63,300.16 	"/>
	<polygon class="st8" points="210.63,283.39 153.91,283.39 153.91,258.2 158.02,258.2 158.02,276.68 195.29,258.11 200.53,258.11 
		158.46,279.28 168.88,279.28 210.63,258.11 210.63,265.73 183.8,279.23 210.63,279.23 	"/>
	<polygon class="st8" points="141.29,258.11 141.29,283.39 84.49,283.39 84.49,279.28 111.11,279.28 84.49,265.73 84.49,263.09 
		116.59,279.18 126.77,279.18 84.49,258.11 99.91,258.11 136.94,276.68 136.94,258.11 	"/>
</g>
</svg>
